# xmcd CD database file
# Copyright (C) 1993-1998 Ti Kan
#
# Track frame offsets:
#	182
#	17182
#	35737
#	59002
#	81732
#	104807
#	126770
#	144167
#	164985
#	182295
#
# Disc length: 2666 seconds
#
# Revision: 1
# Processed by: cddbd v1.4b41PL1 Copyright (c) Steve Scherf et al.
# Submitted via: CDValet v3.31 - Copyright (c) 1997 Greg Leichner
#
DISCID=970a680a
DTITLE=Various Artist - huH CD 6
DYEAR=1900
DGENRE=
TTITLE0=Craziest (Naughty By Nature)
TTITLE1=Thru A Thang (Dayton Family)
TTITLE2=World Ultimate (The Nonce)
TTITLE3=Dead Presidents (Master P)
TTITLE4=I Like What You're Doing To Me (Joya)
TTITLE5=Can't See You (Total)
TTITLE6=Everytime You Touch Me (Moby)
TTITLE7=All About My Fetti (Young Lay featuring Mac Mall and Ray 
TTITLE7=Luv
TTITLE8=Do What You Want (Wicked Mix) (Blak Panta)
TTITLE9=Outta Control (The Delinquents)
EXTD=
EXTT0=
EXTT1=
EXTT2=
EXTT3=
EXTT4=
EXTT5=
EXTT6=
EXTT7=
EXTT8=
EXTT9=
PLAYORDER=
